# xmcd
# Track frame offsets:
# 150
# 18399
# 35586
# 59301
# 76741
# 93820
# 110997
#
# Disc length: 1668 seconds
# Revision: 0
# Processed by: cddbd v1.4PL0 Copyright (c) Steve Scherf et al.
# Submitted via: VisiTrax 2.9.5.181 - For more info visit www.synapsa.com
#
DISCID=4f068207
DTITLE=Bitter Blue - First Take (Demo)
DYEAR=2002
DGENRE=Blues
TTITLE0=How could I ever say
TTITLE1=Never get a car
TTITLE2=Life on the road
TTITLE3=OLne of a kind
TTITLE4=Crossroads
TTITLE5=The Boogie Woogie song
TTITLE6=I can´t tke it
EXTD=
EXTT0=
EXTT1=
EXTT2=
EXTT3=
EXTT4=
EXTT5=
EXTT6=
PLAYORDER=
